<?xml version="1.0" standalone="no"?>
<!DOCTYPE svg PUBLIC "-//W3C//DTD SVG 20010904//EN"
 "http://www.w3.org/TR/2001/REC-SVG-20010904/DTD/svg10.dtd">
<svg version="1.0" xmlns="http://www.w3.org/2000/svg"
 width="2508.000000pt" height="2508.000000pt" viewBox="0 0 2508.000000 2508.000000"
 preserveAspectRatio="xMidYMid meet">
<metadata>
Created by potrace 1.11, written by Peter Selinger 2001-2013
</metadata>
<g transform="translate(0.000000,2508.000000) scale(0.100000,-0.100000)"
fill="#000000" stroke="none">
<path d="M11075 23484 c-135 -14 -194 -29 -201 -49 -3 -8 -20 -17 -37 -21 -18
-3 -43 -14 -57 -23 -14 -9 -38 -23 -54 -31 -67 -34 -140 -132 -152 -206 -6
-40 -5 -42 41 -78 26 -20 53 -36 59 -36 23 0 123 -48 189 -89 53 -35 71 -52
87 -88 11 -25 20 -50 20 -56 0 -6 6 -18 14 -26 31 -37 69 -190 90 -366 18
-151 38 -753 29 -867 -3 -43 -6 -78 -7 -78 -1 0 -28 4 -60 10 -45 7 -75 6
-125 -5 -36 -8 -142 -23 -236 -34 -178 -20 -285 -50 -457 -129 -155 -71 -331
-255 -383 -403 -44 -122 -67 -238 -74 -361 -3 -69 -8 -128 -11 -131 -3 -2 -57
-21 -120 -42 -911 -300 -1781 -787 -2420 -1354 -849 -753 -1380 -1664 -1532
-2631 -29 -185 -30 37 12 -5270 5 -674 11 -1425 12 -1668 l3 -444 -70 -22
c-79 -25 -158 -64 -225 -109 -74 -50 -210 -188 -257 -260 -73 -114 -148 -290
-177 -417 -15 -63 -36 -144 -46 -180 -37 -122 -52 -225 -60 -400 -6 -151 -5
-176 8 -186 13 -10 14 -207 8 -1845 -4 -1162 -3 -1864 3 -1915 13 -110 167
-574 221 -665 72 -122 159 -229 298 -365 75 -74 171 -158 212 -186 41 -28 97
-70 124 -92 90 -74 256 -169 351 -199 187 -61 427 -79 841 -65 164 6 187 9
242 32 34 14 78 26 98 26 37 0 124 30 219 75 28 13 92 36 143 51 82 24 105 37
187 99 212 163 337 282 370 351 14 29 29 55 33 58 5 3 12 -587 16 -1312 5
-994 10 -1320 19 -1331 10 -12 58 -13 317 -7 167 4 309 11 315 16 7 6 21 -11
40 -46 19 -34 35 -54 45 -52 13 3 16 99 20 808 3 443 6 805 8 805 1 0 208 -3
459 -7 412 -6 1669 -14 5280 -34 l1183 -7 2 -781 c3 -689 5 -781 18 -784 10
-2 26 18 45 52 19 35 33 52 40 46 6 -5 148 -12 315 -16 260 -6 307 -5 317 8 9
10 14 338 19 1360 l7 1345 48 -58 c45 -53 199 -192 279 -250 126 -91 403 -221
587 -275 180 -52 485 -68 664 -34 58 11 152 26 265 40 73 9 395 100 443 124
14 8 42 17 61 21 54 11 166 71 250 133 90 67 294 268 339 335 18 26 43 54 56
63 14 9 45 44 69 78 24 33 54 70 66 81 12 11 41 46 64 78 22 32 51 72 64 89
12 17 27 49 33 70 5 21 21 60 34 85 17 31 25 62 25 97 0 28 5 67 11 86 30 96
59 545 62 955 1 193 -4 537 -11 765 -7 228 -18 741 -23 1140 -14 1068 -22
1218 -79 1480 -12 52 -28 129 -36 170 -26 133 -52 194 -138 323 -46 68 -97
151 -115 184 -63 118 -261 253 -478 327 -176 60 -217 80 -258 129 l-33 38 2
170 c1 96 -2 170 -7 172 -6 2 -17 518 -28 1252 -46 3128 -60 4029 -84 5365
-10 500 -53 777 -182 1160 -378 1122 -1289 2088 -2583 2739 -332 168 -571 268
-930 391 l-165 57 -3 34 c-5 58 -41 215 -62 271 -29 77 -175 311 -254 406
-172 208 -313 290 -606 354 -68 15 -146 22 -276 25 l-182 5 -6 37 c-3 20 -6
176 -6 346 0 258 3 334 20 455 39 279 51 312 158 443 68 83 122 134 184 174
134 86 178 144 178 235 0 33 -4 38 -27 44 -25 6 -104 41 -248 110 -61 29 -165
54 -226 54 -41 0 -153 10 -584 55 -190 20 -1766 19 -1950 -1z m2530 -2234 c15
-17 17 -31 12 -87 -4 -38 -11 -69 -16 -71 -5 -2 -21 -14 -37 -27 -55 -47 -100
-52 -659 -65 -274 -7 -505 -7 -665 -1 -135 6 -411 15 -615 21 -375 12 -406 15
-504 57 l-53 24 4 64 c2 35 7 67 11 71 3 4 19 6 34 5 130 -9 526 -10 754 -2
181 6 451 6 776 -1 490 -9 829 -1 886 22 35 14 53 11 72 -10z m-1865 -1995 c5
-14 19 -80 30 -147 12 -67 25 -128 29 -137 5 -9 12 -54 15 -101 4 -47 17 -143
28 -215 11 -71 22 -162 25 -201 4 -63 3 -72 -13 -78 -13 -5 -24 -1 -36 14 -21
26 -61 160 -78 260 -7 41 -18 99 -26 128 -7 29 -21 119 -30 200 -18 156 -14
279 8 293 23 15 38 10 48 -16z m2246 -273 c-8 -60 -54 -179 -141 -367 -14 -30
-93 -222 -134 -325 -28 -71 -72 -125 -95 -117 -24 9 -20 33 17 101 19 34 51
113 72 176 21 63 46 135 55 160 10 25 21 63 24 85 13 72 100 271 139 313 11
12 32 22 45 22 24 0 24 -2 18 -48z m-2005 -474 l33 -11 -34 -13 c-48 -17 -47
-17 -52 11 -6 28 3 31 53 13z m-257 -54 c9 -22 9 -22 -60 -30 l-59 -6 34 26
c40 30 76 34 85 10z m-2010 -172 c12 -9 38 -36 57 -61 19 -25 71 -85 117 -134
45 -49 90 -101 100 -115 9 -15 27 -35 39 -45 13 -10 23 -24 23 -31 0 -7 27
-44 60 -82 33 -38 60 -75 60 -81 0 -8 -13 -13 -32 -13 -28 0 -46 15 -137 113
-58 61 -163 168 -233 237 -77 76 -133 140 -143 162 -18 46 -19 43 1 63 19 19
54 14 88 -13z m3874 9 c10 -6 9 -11 -5 -23 -17 -15 -21 -14 -60 4 -24 11 -43
24 -43 30 0 10 85 1 108 -11z m197 -97 c38 -25 30 -32 -20 -21 -36 8 -42 13
-34 24 15 17 24 16 54 -3z m-3589 -345 c13 -22 -12 -30 -31 -9 -18 19 -18 20
3 20 11 0 24 -5 28 -11z m-178 -176 c-56 -58 -77 -40 -30 26 25 36 28 38 45
23 17 -15 16 -17 -15 -49z m5765 -18 c7 -17 -69 -123 -115 -159 -91 -72 -250
-188 -324 -236 -29 -19 -94 -63 -145 -97 -90 -62 -121 -74 -135 -52 -7 12 23
41 103 102 23 18 103 86 179 152 162 143 267 225 343 271 61 37 86 42 94 19z
m-724 -390 c33 -45 34 -48 16 -61 -16 -12 -20 -8 -46 47 -16 34 -29 63 -29 66
0 15 29 -10 59 -52z m151 -220 c0 -39 -5 -42 -32 -18 -21 19 -23 39 -5 46 29
12 37 6 37 -28z m-2638 -352 c131 -73 164 -232 75 -355 -26 -37 -31 -54 -35
-118 -3 -55 0 -86 12 -114 16 -38 16 -40 -9 -72 -14 -19 -41 -46 -60 -61 -30
-24 -43 -27 -117 -29 l-82 -1 -63 65 c-35 35 -63 69 -63 74 0 5 7 22 15 38 20
40 19 184 -2 202 -57 47 -77 187 -36 263 71 134 233 182 365 108z m-3518 -319
c4 -9 4 -32 0 -50 -5 -27 -11 -34 -30 -34 -29 0 -32 26 -9 70 17 34 30 38 39
14z m-434 -39 c46 -15 94 -28 105 -30 11 -1 81 -19 155 -39 74 -21 159 -44
188 -52 29 -8 56 -22 59 -31 9 -24 -34 -56 -66 -48 -13 3 -74 15 -135 26 -61
11 -151 30 -201 43 -49 13 -126 31 -170 41 -77 17 -175 58 -175 73 0 4 -3 18
-7 31 l-6 24 84 -6 c50 -3 119 -16 169 -32z m409 -241 c6 -6 -20 -63 -36 -76
-20 -16 -33 5 -33 55 0 38 0 39 33 32 17 -4 34 -9 36 -11z m3580 -213 c378
-74 650 -348 722 -729 17 -89 6 -288 -20 -380 -43 -146 -131 -291 -242 -398
-107 -101 -206 -159 -359 -210 -80 -26 -95 -28 -255 -28 -159 0 -175 2 -255
28 -304 100 -515 318 -602 623 -33 113 -32 333 0 448 94 329 355 577 680 645
114 24 209 24 331 1z m-3728 -1492 c6 -13 7 -24 2 -28 -5 -3 -12 -14 -16 -23
-10 -28 -37 -22 -37 8 0 29 16 64 30 64 5 0 14 -10 21 -21z m89 -115 c-5 -19
-10 -37 -12 -38 -1 -1 -48 -17 -103 -35 -55 -18 -130 -50 -166 -70 -110 -64
-359 -135 -375 -109 -12 19 40 58 105 79 36 12 87 32 113 45 25 13 64 28 85
33 21 5 108 36 193 69 85 33 158 61 161 61 4 1 3 -15 -1 -35z m-1 -106 c18
-48 20 -63 12 -76 -12 -20 -36 -5 -54 34 -21 44 -21 51 1 57 30 8 32 7 41 -15z
m4420 -627 c62 -44 65 -57 73 -264 3 -106 7 -281 7 -390 1 -215 -4 -241 -54
-287 l-27 -25 -783 -19 c-430 -10 -808 -15 -840 -11 -41 5 -65 14 -86 33 l-30
27 -10 340 c-6 187 -7 378 -4 425 7 82 8 86 46 123 33 30 48 37 82 38 23 0
337 9 697 19 730 20 891 19 929 -9z m1745 -479 c9 -15 -59 -73 -77 -66 -24 9
-21 19 14 48 31 26 54 33 63 18z m-153 -79 c19 -9 53 -33 76 -55 24 -21 87
-67 140 -101 54 -35 104 -71 112 -81 8 -10 28 -24 45 -33 50 -26 215 -167 206
-176 -3 -3 -31 3 -63 13 -65 20 -168 84 -241 148 -27 24 -90 74 -140 112 -118
89 -186 153 -186 173 0 21 8 21 51 0z m-14 -139 c2 0 -10 -12 -25 -27 -24 -23
-29 -24 -46 -12 -18 13 -17 15 4 45 22 30 23 31 44 13 11 -10 22 -18 23 -19z
m-5113 -192 c3 -5 -7 -21 -23 -36 l-28 -27 -6 38 c-11 64 -10 65 22 48 17 -8
32 -19 35 -23z m96 -51 c-5 -11 -15 -23 -20 -26 -6 -3 -10 -14 -10 -24 0 -9
-16 -33 -36 -52 -20 -18 -79 -85 -131 -147 -53 -62 -107 -121 -122 -129 -14
-9 -53 -45 -86 -80 -98 -102 -137 -80 -75 43 39 79 87 134 175 198 39 30 118
95 175 145 98 87 155 118 130 72z m65 -111 c20 -20 24 -30 14 -31 -27 -2 -44
3 -61 18 -14 12 -15 19 -7 30 16 19 22 17 54 -17z m3523 -663 c7 -15 19 -27
26 -27 8 0 17 -12 21 -27 3 -16 31 -88 62 -161 38 -92 52 -137 45 -144 -14
-14 5 -68 22 -62 15 6 51 -85 62 -153 5 -36 3 -43 -16 -53 -20 -11 -26 -8 -55
21 -51 53 -88 131 -143 299 -69 215 -89 304 -72 325 17 20 32 15 48 -18z m162
23 c13 -9 11 -14 -13 -35 -33 -29 -37 -30 -62 -12 -21 16 -14 34 19 47 28 12
38 12 56 0z m-257 -135 c-4 -15 -56 -12 -61 3 -3 10 5 13 29 10 19 -2 33 -7
32 -13z m-1812 -36 c11 -5 17 -14 14 -19 -3 -6 -8 -29 -10 -52 -1 -24 -15 -88
-29 -143 -14 -55 -26 -120 -26 -144 0 -53 -46 -252 -64 -276 -10 -14 -17 -15
-33 -7 -46 25 -42 56 68 485 24 92 47 167 52 167 4 0 17 -5 28 -11z m-111 -49
c0 -17 -3 -19 -17 -11 -47 27 -49 31 -15 31 26 0 32 -4 32 -20z m238 -44 c11
-12 -16 -28 -48 -29 -27 -2 -33 2 -36 22 -4 22 -2 23 37 18 22 -3 43 -8 47
-11z m4730 -1691 c95 -19 115 -31 151 -80 51 -72 44 -145 -34 -325 -58 -136
-64 -155 -67 -240 l-3 -80 -45 0 c-25 0 -81 -3 -125 -6 l-81 -7 4 124 4 124
-44 85 c-25 47 -57 108 -73 135 -27 48 -27 52 -15 108 14 71 64 132 119 147
30 8 107 25 133 29 4 1 38 -6 76 -14z m-8002 -38 c99 -73 99 -74 99 -191 -1
-82 -5 -112 -25 -161 -19 -49 -24 -79 -24 -160 -1 -89 2 -106 27 -158 15 -32
27 -59 27 -60 0 -1 -51 -3 -113 -4 -61 0 -132 -4 -157 -7 l-45 -6 3 45 c2 26
0 45 -6 45 -6 0 -10 38 -9 98 2 96 1 99 -47 212 -66 152 -72 223 -27 290 42
63 110 100 182 100 51 0 62 -4 115 -43z m56 -787 c351 -37 641 -292 729 -639
18 -73 21 -104 16 -225 -4 -117 -9 -154 -31 -219 -96 -285 -294 -476 -583
-563 -76 -23 -106 -27 -223 -27 -117 0 -147 4 -223 27 -319 96 -538 334 -603
656 -20 100 -15 258 11 360 64 247 241 461 468 565 115 52 268 89 327 79 14
-3 64 -9 112 -14z m7948 -9 c274 -38 501 -185 639 -415 19 -31 50 -103 69
-159 30 -87 36 -119 40 -218 10 -245 -63 -447 -226 -620 -86 -92 -142 -135
-238 -183 -91 -46 -148 -63 -261 -83 -176 -29 -383 11 -544 107 -94 56 -218
175 -280 269 -154 234 -181 535 -72 796 64 153 192 300 343 393 123 76 335
138 430 126 19 -2 64 -8 100 -13z m-7655 -6503 l7 -1608 -44 -2 -43 -1 43 -4
c23 -2 42 -9 42 -15 0 -8 -51 -9 -172 -4 -165 6 -226 14 -142 18 21 1 -18 4
-88 7 -70 4 -129 8 -131 11 -4 5 -18 1198 -33 2756 l-6 651 79 7 c106 10 210
32 323 69 52 17 106 34 120 37 l25 5 6 -160 c4 -88 10 -883 14 -1767z m7779
1906 l49 -17 -7 -606 c-3 -333 -9 -993 -13 -1466 -4 -473 -8 -863 -9 -867 -1
-5 -2 -152 -3 -328 l-1 -321 -261 6 c-144 3 -266 8 -272 12 -11 6 -2 2972 10
3389 l6 221 226 -4 c173 -3 237 -7 275 -19z m-7654 -1024 l0 -1000 -33 0 -34
0 -6 257 c-4 141 -7 591 -7 1000 l0 743 40 0 40 0 0 -1000z m7090 206 c0 -418
-3 -872 -7 -1008 l-6 -248 -34 0 -33 0 0 1009 0 1010 23 3 c12 2 30 2 40 0 16
-4 17 -49 17 -766z m-7597 -2713 c-13 -2 -33 -2 -45 0 -13 2 -3 4 22 4 25 0
35 -2 23 -4z"/>
<path d="M12311 15650 c-270 -71 -471 -338 -471 -626 0 -291 205 -555 491
-631 86 -23 243 -22 329 1 213 58 380 214 453 425 27 75 31 101 31 196 1 130
-12 191 -66 305 -34 70 -55 100 -127 170 -87 86 -168 136 -270 167 -68 20
-279 16 -370 -7z m312 -48 c222 -61 388 -222 442 -428 19 -74 19 -223 0 -297
-54 -207 -229 -379 -435 -428 -78 -18 -223 -16 -295 5 -248 73 -416 281 -432
535 -18 304 179 555 492 627 74 16 127 13 228 -14z"/>
<path d="M12566 14945 c-49 -26 -129 -34 -141 -14 -14 22 -55 29 -90 15 -40
-17 -65 -60 -65 -112 0 -31 7 -45 45 -80 60 -58 90 -72 179 -84 60 -9 81 -8
108 3 50 21 143 102 158 136 23 58 -3 117 -67 150 -34 18 -76 13 -127 -14z
m112 -61 c42 -29 21 -71 -69 -131 -35 -23 -39 -24 -105 -12 -52 9 -79 21 -111
46 -42 34 -61 82 -28 69 9 -3 51 -6 94 -7 69 -1 85 2 122 25 51 30 66 32 97
10z"/>
<path d="M12715 13478 c-762 -17 -855 -21 -906 -46 -42 -21 -48 -28 -69 -88
-23 -65 -23 -70 -16 -343 7 -270 7 -277 31 -313 44 -67 60 -71 314 -69 306 1
1146 20 1198 27 32 4 50 14 77 45 20 21 36 47 36 57 0 10 4 22 10 28 6 6 6
106 0 279 -8 229 -12 278 -28 319 -22 57 -62 96 -97 96 -13 0 -27 5 -30 10 -3
6 -39 9 -78 8 -40 -1 -238 -5 -442 -10z m102 -168 c32 -19 67 -72 61 -92 -5
-14 -68 -40 -68 -28 0 21 -41 50 -69 50 -39 0 -61 -32 -61 -86 l0 -42 41 14
c49 17 105 6 137 -29 42 -45 46 -184 7 -244 -20 -29 -88 -62 -130 -63 -50 0
-116 40 -139 84 -17 35 -20 60 -21 185 0 132 2 150 22 187 12 23 37 51 55 63
43 27 121 28 165 1z m413 -7 c0 -71 -4 -73 -101 -73 l-89 0 0 -50 0 -49 48 6
c61 7 115 -15 137 -56 38 -74 27 -192 -23 -244 -66 -69 -201 -55 -251 26 -28
46 -27 54 14 67 33 11 37 10 64 -19 32 -34 38 -36 74 -22 29 11 42 55 32 107
-8 46 -40 62 -93 46 -29 -9 -46 -9 -71 1 l-32 12 6 115 c9 178 -7 160 150 160
l135 0 0 -27z m-1108 -21 c27 -26 32 -40 36 -89 5 -80 -15 -122 -98 -202 -37
-36 -73 -76 -79 -88 l-12 -23 101 0 100 0 0 -45 0 -45 -155 0 c-172 0 -161 -5
-155 70 3 52 32 100 110 184 39 42 75 89 81 103 31 82 -67 118 -105 39 l-16
-35 -38 13 c-27 10 -36 18 -34 32 6 34 38 79 73 102 29 20 44 23 97 20 54 -3
67 -8 94 -36z m325 18 c58 -35 67 -67 71 -235 3 -140 2 -153 -20 -195 -28 -55
-75 -83 -137 -84 -61 -1 -101 17 -130 59 -26 39 -23 60 13 76 22 10 28 8 49
-16 17 -20 33 -28 55 -28 48 0 62 18 62 80 0 49 -2 54 -17 48 -71 -28 -146 -5
-175 55 -22 43 -24 140 -4 178 16 30 53 66 76 75 37 13 126 6 157 -13z"/>
<path d="M12703 13040 c-20 -8 -23 -17 -23 -64 0 -63 16 -86 61 -86 22 0 32 6
39 26 16 42 12 92 -10 114 -22 22 -33 23 -67 10z"/>
<path d="M12314 13205 c-19 -29 -14 -102 8 -116 19 -13 62 -11 76 3 7 7 12 35
12 63 0 28 -5 56 -12 63 -21 21 -66 14 -84 -13z"/>
<path d="M8328 8900 c-139 -24 -255 -85 -359 -190 -136 -137 -196 -296 -187
-499 8 -174 66 -307 188 -431 122 -123 269 -189 441 -198 321 -16 611 200 684
511 21 89 19 228 -5 321 -46 181 -177 344 -340 424 -47 23 -112 49 -145 57
-62 16 -197 18 -277 5z m267 -66 c265 -65 455 -308 455 -584 0 -231 -131 -442
-331 -538 -101 -48 -162 -62 -277 -62 -170 0 -294 52 -418 175 -124 123 -177
250 -177 425 0 47 5 110 12 140 50 215 235 399 457 454 68 17 185 13 279 -10z"/>
<path d="M8340 8238 c-36 -11 -70 -21 -77 -23 -6 -2 -20 -16 -29 -30 -45 -69
-1 -137 101 -156 166 -31 355 26 355 107 0 67 -77 118 -162 108 -29 -3 -69 -2
-88 3 -27 8 -50 6 -100 -9z m273 -77 c41 -40 -25 -71 -155 -71 -118 0 -170 13
-166 42 5 34 85 54 202 51 83 -2 103 -6 119 -22z"/>
<path d="M16285 8850 c-293 -63 -485 -284 -502 -576 -17 -291 162 -548 442
-634 107 -32 264 -31 372 4 159 51 293 166 369 317 51 103 67 183 61 314 -8
175 -58 288 -181 410 -154 153 -350 210 -561 165z m299 -79 c181 -64 320 -214
366 -395 25 -100 25 -182 0 -280 -26 -103 -69 -177 -149 -256 -113 -112 -240
-164 -396 -163 -157 2 -296 63 -406 181 -281 300 -162 767 234 918 56 22 74
24 177 20 83 -3 132 -10 174 -25z"/>
<path d="M16337 8250 c-18 -14 -40 -20 -77 -20 -64 0 -100 -30 -100 -84 0 -29
7 -40 51 -75 l52 -41 133 0 c143 0 155 4 175 57 17 46 10 73 -28 108 -21 19
-44 35 -51 35 -8 0 -25 9 -39 20 -14 11 -40 20 -58 20 -18 0 -44 -9 -58 -20z
m108 -100 c22 -11 45 -20 53 -20 7 0 12 -6 10 -12 -3 -9 -36 -14 -108 -16 -93
-2 -106 -1 -136 20 -19 13 -34 26 -34 30 0 4 30 9 68 11 37 2 76 4 87 5 12 1
38 -7 60 -18z"/>
<path d="M8628 943 c18 -2 45 -2 60 0 15 2 0 4 -33 4 -33 0 -45 -2 -27 -4z"/>
</g>
</svg>
